<svg width="0" height="0" class="hidden">
  <symbol version="1.1" id="download-svgrepo-com" xmlns="http://www.w3.org/2000/svg" xmlns:xlink="http://www.w3.org/1999/xlink" x="0px" y="0px" xml:space="preserve" viewBox="0 0 330 330">
    <g id="XMLID_23_">
      <path id="XMLID_24_" d="M154.389,255.602c0.351,0.351,0.719,0.683,1.103,0.998c0.169,0.138,0.347,0.258,0.52,0.388
		c0.218,0.164,0.432,0.333,0.659,0.484c0.212,0.142,0.432,0.265,0.649,0.395c0.202,0.121,0.4,0.248,0.608,0.359
		c0.223,0.12,0.453,0.221,0.681,0.328c0.215,0.102,0.427,0.21,0.648,0.301c0.223,0.092,0.45,0.167,0.676,0.247
		c0.236,0.085,0.468,0.175,0.709,0.248c0.226,0.068,0.456,0.119,0.684,0.176c0.246,0.062,0.489,0.131,0.739,0.181
		c0.263,0.052,0.529,0.083,0.794,0.121c0.219,0.031,0.435,0.073,0.658,0.095c0.492,0.048,0.986,0.075,1.48,0.075
		c0.494,0,0.988-0.026,1.479-0.075c0.226-0.022,0.444-0.064,0.667-0.096c0.262-0.037,0.524-0.068,0.784-0.12
		c0.255-0.05,0.504-0.121,0.754-0.184c0.223-0.057,0.448-0.105,0.669-0.172c0.246-0.075,0.483-0.167,0.724-0.253
		c0.221-0.08,0.444-0.152,0.662-0.242c0.225-0.093,0.44-0.202,0.659-0.306c0.225-0.106,0.452-0.206,0.672-0.324
		c0.21-0.112,0.408-0.239,0.611-0.361c0.217-0.13,0.437-0.252,0.648-0.394c0.222-0.148,0.431-0.314,0.644-0.473
		c0.179-0.134,0.362-0.258,0.536-0.4c0.365-0.3,0.714-0.617,1.049-0.949c0.016-0.016,0.034-0.028,0.049-0.044l70.002-69.998
		c5.858-5.858,5.858-15.355,0-21.213c-5.857-5.857-15.355-5.858-21.213-0.001l-44.396,44.393V25c0-8.284-6.716-15-15-15
		c-8.284,0-15,6.716-15,15v183.785l-44.392-44.391c-5.857-5.858-15.355-5.858-21.213,0c-5.858,5.858-5.858,15.355,0,21.213
		L154.389,255.602z"></path>
      <path id="XMLID_25_" d="M315,160c-8.284,0-15,6.716-15,15v115H30V175c0-8.284-6.716-15-15-15c-8.284,0-15,6.716-15,15v130
		c0,8.284,6.716,15,15,15h300c8.284,0,15-6.716,15-15V175C330,166.716,323.284,160,315,160z"></path>
    </g>
    <g></g>
    <g></g>
    <g></g>
    <g></g>
    <g></g>
    <g></g>
    <g></g>
    <g></g>
    <g></g>
    <g></g>
    <g></g>
    <g></g>
    <g></g>
    <g></g>
    <g></g>
  </symbol>

  <symbol xmlns="http://www.w3.org/2000/svg" preserveAspectRatio="xMinYMin" viewBox="-4 -2 24 24" id="paypal-svgrepo-com">
    <path d="M4.328 16.127l-.011.07a.899.899 0 0 1-.887.744H.9a.892.892 0 0 1-.88-1.04L2.57.745A.892.892 0 0 1 3.45 0h6.92a4.141 4.141 0 0 1 4.142 4.141c0 .273-.017.54-.05.804a3.629 3.629 0 0 1 1.53 2.962 5.722 5.722 0 0 1-5.72 5.722h-.583c-.653 0-1.211.472-1.32 1.117l-.314 1.87.314-1.87a1.339 1.339 0 0 1 1.32-1.117h.582a5.722 5.722 0 0 0 5.722-5.722 3.629 3.629 0 0 0-1.53-2.962 6.52 6.52 0 0 1-6.47 5.716H6.06a.969.969 0 0 0-.93.701l-1.155 6.862c-.08.48.289.916.775.916h2.214a.786.786 0 0 0 .775-.655l.315-1.87-.315 1.87a.786.786 0 0 1-.775.655H4.751a.782.782 0 0 1-.6-.278.782.782 0 0 1-.175-.638l.352-2.097z"></path>
    <path d="M15.45 5.995c.365.567.578 1.242.578 1.967a5.722 5.722 0 0 1-5.722 5.722h-.581c-.654 0-1.212.472-1.32 1.117l-.63 3.739a.786.786 0 0 1-.774.655H4.973l1.15-6.833c.118-.41.495-.7.93-.7h1.932a6.52 6.52 0 0 0 6.464-5.667zm-10.477 13.2h-.187a.786.786 0 0 1-.775-.916l.057-.338h.355a.899.899 0 0 0 .886-.743l.012-.07-.348 2.067z"></path>
  </symbol>


  <symbol version="1.1" id="light-bulb-svgrepo-com" xmlns="http://www.w3.org/2000/svg" xmlns:xlink="http://www.w3.org/1999/xlink" x="0px" y="0px" xml:space="preserve" viewBox="0 0 297 297">
    <g>
      <path d="M148.542,0c-54.677,0-99,29.581-99,90.495c0,54.455,46.145,80.378,46.145,80.378c1.108,0.62,2.522,1.221,3.522,1.797v26.83
		c0,8.284,7.049,15,15.333,15h68c8.284,0,14.667-6.716,14.667-15v-26.83c2-0.576,2.747-1.177,3.855-1.797
		c0,0,46.395-25.923,46.395-80.378C247.458,29.581,203.218,0,148.542,0z M92.521,70.592c-1.132,3.329-4.242,5.427-7.573,5.427
		c-0.854,0-1.723-0.138-2.576-0.428c-4.184-1.423-6.421-5.967-4.999-10.149c3.369-9.907,8.946-18.172,16.578-24.565
		c7.726-6.472,17.592-11.178,29.323-13.988c4.292-1.024,8.613,1.62,9.644,5.917c1.029,4.296-1.62,8.614-5.917,9.644
		c-9.171,2.196-17.046,5.895-22.775,10.693C98.871,57.627,94.933,63.498,92.521,70.592z"></path>
      <path d="M189.292,230.5h-82.5c-4.557,0-8.583,3.693-8.583,8.25v0.5c0,4.557,3.693,8.25,8.25,8.25c-4.557,0-8.25,3.693-8.25,8.25
		v0.5c0,4.557,4.026,8.25,8.583,8.25h8.763c0.269,17.994,14.93,32.5,32.987,32.5c18.058,0,32.719-14.506,32.987-32.5h7.763
		c4.557,0,7.917-3.693,7.917-8.25v-0.5c0-4.557-3.693-8.25-8.25-8.25c4.557,0,8.25-3.693,8.25-8.25v-0.5
		C197.209,234.193,193.848,230.5,189.292,230.5z"></path>
    </g>
    <g></g>
    <g></g>
    <g></g>
    <g></g>
    <g></g>
    <g></g>
    <g></g>
    <g></g>
    <g></g>
    <g></g>
    <g></g>
    <g></g>
    <g></g>
    <g></g>
    <g></g>
  </symbol>

  <symbol id="key-fill-svgrepo-com" xmlns="http://www.w3.org/2000/svg" viewBox="0 0 256 256">
    <path d="M160.00244,16A80.05817,80.05817,0,0,0,83.91357,120.77539L26.34521,178.34277A8.00235,8.00235,0,0,0,24.00244,184v40a8.00039,8.00039,0,0,0,8,8h40a8.00039,8.00039,0,0,0,8-8V208h16a8.00039,8.00039,0,0,0,8-8V184h16a8.00235,8.00235,0,0,0,5.65723-2.34277l9.56738-9.56836A80.00922,80.00922,0,1,0,160.00244,16ZM180,92a16,16,0,1,1,16-16A16.00016,16.00016,0,0,1,180,92Z"></path>
  </symbol>
  
</svg>